<svg width="11" height="19" viewBox="0 0 11 19" fill="none" xmlns="http://www.w3.org/2000/svg">
<path fill-rule="evenodd" clip-rule="evenodd" d="M5.34379 0.0482312C5.30861 0.0750697 4.09189 2.18758 2.63993 4.74269C0.749255 8.06984 0 9.42011 0 9.50029C0 9.67302 1.4902 12.277 1.61674 12.3254C1.79042 12.3918 1.99329 12.2543 1.99329 12.0701C1.99329 12.0313 1.71209 11.5038 1.36839 10.8977L0.743533 9.79585L1.8195 9.80569L2.89547 9.81553L3.78872 13.2491C4.28 15.1376 4.67825 16.6864 4.67371 16.691C4.66917 16.6956 4.19816 15.8771 3.62701 14.8722C3.05586 13.8672 2.56758 13.0242 2.54192 12.9986C2.46943 12.9265 2.26146 12.9424 2.17785 13.0265C2.13725 13.0673 2.10403 13.1488 2.10403 13.2076C2.10403 13.3245 5.22803 18.8634 5.34382 18.9518C5.42536 19.0141 5.57903 19.0164 5.65747 18.9566C5.75263 18.8839 9.44959 12.3502 9.44963 12.2546C9.44966 12.1401 9.29123 11.9871 9.17282 11.9871C9.12022 11.9871 9.04052 12.0247 8.99575 12.0706C8.95097 12.1166 8.3339 13.1768 7.62451 14.4268C6.91512 15.6768 6.33094 16.6957 6.32629 16.691C6.32168 16.6864 6.71967 15.1375 7.21068 13.2491L8.10349 9.81553L9.18087 9.80569L10.2582 9.79585L9.91244 10.4023C9.72226 10.7358 9.56328 11.0325 9.55919 11.0617C9.54265 11.1784 9.56406 11.2452 9.6412 11.3175C9.74031 11.4104 9.89664 11.4151 9.99457 11.3282C10.1264 11.2112 11 9.62298 11 9.50026C11 9.4213 10.719 8.89259 10.0575 7.72703C9.5391 6.81363 9.0805 6.0371 9.03831 6.00135C8.99612 5.9656 8.92118 5.93639 8.87176 5.93639C8.75818 5.93639 8.60063 6.09185 8.60075 6.20385C8.60078 6.25069 8.97452 6.94675 9.43128 7.75064C9.88804 8.55449 10.2617 9.21851 10.2617 9.22619C10.2617 9.23388 9.7807 9.24015 9.19275 9.24015H8.12376L8.0836 9.10095C7.98943 8.77477 6.31858 2.31676 6.32629 2.30897C6.33102 2.30426 6.71443 2.96902 7.17835 3.7862C7.6423 4.60338 8.05137 5.28781 8.08736 5.30723C8.27226 5.40671 8.48993 5.2851 8.48993 5.08231C8.48993 5.0035 8.08231 4.25284 7.10401 2.53025C6.34176 1.18803 5.69077 0.0689447 5.65736 0.0434426C5.57903 -0.0163963 5.42533 -0.0140577 5.34379 0.0482312ZM6.52473 5.31461C7.07798 7.44305 7.53057 9.19702 7.53042 9.21231C7.53013 9.24873 3.46991 9.24873 3.46939 9.21231C3.46847 9.14921 5.48243 1.44476 5.49985 1.44476C5.51026 1.44476 5.97145 3.18617 6.52473 5.31461ZM3.82198 5.6209C3.34906 7.43793 2.94283 8.9956 2.91925 9.08239L2.87635 9.24015H1.80422C1.21454 9.24015 0.737628 9.22579 0.744419 9.20823C0.770148 9.14141 4.66577 2.30103 4.6736 2.3089C4.67814 2.31342 4.29491 3.80383 3.82198 5.6209ZM7.52367 9.84853C7.42201 10.2879 5.51362 17.5552 5.49989 17.5552C5.48937 17.5552 5.03638 15.8472 4.49328 13.7596C3.95018 11.672 3.49579 9.92644 3.48349 9.88049L3.4612 9.79696H5.49841C7.21833 9.79696 7.53374 9.80498 7.52367 9.84853Z" fill="#C5C5C5"/>
</svg>
